# xmcd
#
# Track frame offsets: 
#        150
#        12338
#        24193
#        41433
#        54935
#        72542
#        84467
#        98190
#        118273
#        129293
#
# Disc length: 1964 seconds
#
# Revision: 3
# Processed by: cddbd v1.5.2PL0 Copyright (c) Steve Scherf et al.
# Submitted via: ExactAudioCopyFreeDBPlugin 1.0
#
DISCID=7907aa0a
DTITLE=Trisha Yearwood - Sweetest Gift, The
DYEAR=1994
DGENRE=Country
TTITLE0=Sweet Little Jesus Boy
TTITLE1=Reindeer Boogie
TTITLE2=Take A Walk Through Bethlehem
TTITLE3=Santa Clau Is Back In Town
TTITLE4=It Wasn't His Child
TTITLE5=Away In A Manger
TTITLE6=Sweetest Gift, The
TTITLE7=There's A New Kid In Town
TTITLE8=Let It Snow! Let It Snow! Let It Snow!
TTITLE9=The Christmas Song
EXTD=
EXTT0=
EXTT1=
EXTT2=
EXTT3=
EXTT4=
EXTT5=
EXTT6=
EXTT7=
EXTT8=
EXTT9=
PLAYORDER=
